# xmcd
#
# Track frame offsets: 
#        150
#        18773
#        35903
#        53655
#        71715
#
# Disc length: 1396 seconds
#
# Revision: 0
# Processed by: cddbd v1.5.2PL0 Copyright (c) Steve Scherf et al.
# Submitted via: ExactAudioCopy v0.99pb5
#
DISCID=3d057205
DTITLE=Denise Lopez - Don't You Wanna Be Mine (US promo)
DYEAR=1990
DGENRE=House
TTITLE0=Don't You Wanna Be Mine (LP Version)
TTITLE1=Don't You Wanna Be Mine (The Clivilles and Cole Club Edit)
TTITLE2=Don't You Wanna Be Mine (LP Edit)
TTITLE3=Don't You Wanna Be Mine (The Clivilles and Cole Hot Radio Mix)
TTITLE4=Don't You Wanna Be Mine (The Clivilles and Cole Vocal Club Mix
TTITLE4=)
EXTD=
EXTT0=
EXTT1=
EXTT2=
EXTT3=
EXTT4=
PLAYORDER=
